<mxfile host="app.diagrams.net" modified="2023-04-08T04:28:55.825Z" agent="Mozilla/5.0 (Windows NT 10.0; Win64; x64) AppleWebKit/537.36 (KHTML, like Gecko) Chrome/111.0.0.0 Safari/537.36" version="21.1.5" etag="CgHOizgawzU-ie7Pnw8e" type="github">
  <diagram name="第 1 页" id="oZuW1UUYMa4FJ3o5qAfB">
    <mxGraphModel>
      <root>
        <mxCell id="0" />
        <mxCell id="1" parent="0" />
      </root>
    </mxGraphModel>
  </diagram>
</mxfile>
